# xmcd
#
# Track frame offsets: 
#        150
#        13438
#        26095
#        39076
#        50956
#        67589
#        80204
#        93737
#        108241
#        113786
#        119769
#        133466
#        144345
#        155129
#
# Disc length: 2282 seconds
#
# Revision: 0
# Processed by: cddbd v1.5.2PL0 Copyright (c) Steve Scherf et al.
# Submitted via: ExactAudioCopy v1.0b3
#
DISCID=d008e80e
DTITLE=Various Artist - Country Love Songs - CD 2 (Satin Sheets)
DYEAR=2012
DGENRE=Country
TTITLE0=Jeanne Pruett - Satin Sheets
TTITLE1=Farron Young - It's Four in the Morning
TTITLE2=Kenny Rogers - Ruby, Don't Take Your Love to Town
TTITLE3=Johnny Cash and June Carter - Ring of Fire
TTITLE4=Lynn Anderson - Blue Bayou
TTITLE5=Angelica Texas - Making Believe
TTITLE6=Keith Carson - Come Monday
TTITLE7=Katrina - They Don't Know
TTITLE8=Willie Nelson - The Ghost
TTITLE9=Jim Reeves - Have I Told You Lately That I Love You
TTITLE10=Billie Carter - Woman of the World (Leave My World Alone)
TTITLE11=Kevin North - Blue Eyes Crying in the Rain
TTITLE12=Jolie James - The Ways to Love a Man
TTITLE13=Carolyn Canyon - Goin' Back
EXTD=
EXTT0=
EXTT1=
EXTT2=
EXTT3=
EXTT4=
EXTT5=
EXTT6=
EXTT7=
EXTT8=
EXTT9=
EXTT10=
EXTT11=
EXTT12=
EXTT13=
PLAYORDER=
